<svg width="1280" height="223" viewBox="0 0 1280 223" fill="none" xmlns="http://www.w3.org/2000/svg">
<path d="M409.537 176.885H444.365V153.71H417.085C415.38 153.71 414.409 152.738 414.409 151.029V68.3173H444.61V45.1334H414.409V10.7346H389.569V157.609C389.569 168.351 396.382 176.885 409.537 176.885Z" fill="#FFFFF5"></path>
<path d="M510.366 180.302C528.882 180.302 545.684 171.032 554.938 155.909H555.428C555.183 164.443 555.183 167.86 555.183 176.885H580.267V45.1336H555.183C555.183 54.1672 555.183 59.0477 555.428 66.609H554.938C546.174 50.5048 530.588 42.2073 510.366 42.2073C475.782 42.2073 449.963 71.9711 449.963 111.505C449.963 151.265 475.057 180.302 510.366 180.302ZM515.238 157.373C491.124 157.373 475.057 137.606 475.057 111.505C475.057 85.3943 491.124 65.1457 515.238 65.1457C539.842 65.1457 556.153 84.1761 556.153 111.259C556.153 138.823 540.087 157.373 515.238 157.373Z" fill="#FFFFF5"></path>
<path d="M617.772 176.885H645.052V153.71H625.329C623.868 153.71 622.889 152.738 622.889 151.029V0.246948H597.804V157.609C597.804 168.351 604.626 176.885 617.772 176.885Z" fill="#FFFFF5"></path>
<path d="M657.962 176.885H680.86L716.659 123.946L752.703 176.885H781.199V176.403L734.441 105.643L775.112 45.6242V45.1335H746.126L683.537 138.342H682.802V0.00158691H657.962V176.885Z" fill="#FFFFF5"></path>
<path d="M792.648 221.78H817.733V179.084C817.733 169.814 817.733 164.198 817.488 155.664H817.978C826.506 171.278 842.337 180.057 862.795 180.057C897.133 180.057 923.189 150.538 923.189 111.014C923.189 71.2439 897.859 42.2073 862.55 42.2073C844.523 42.2073 827.232 51.477 817.978 66.8542H817.488C817.733 58.8021 817.733 53.4311 817.733 45.1336H792.648V221.78ZM857.678 157.128C833.074 157.128 816.762 138.578 816.762 111.014C816.762 83.931 832.838 64.9006 857.678 64.9006C881.792 64.9006 898.104 84.9034 898.104 111.014C898.104 137.115 882.028 157.128 857.678 157.128Z" fill="#FFFFF5"></path>
<path d="M993.825 180.547C1028.65 180.547 1050.82 158.591 1050.82 123.456V45.1335H1025.73V121.747C1025.73 142.977 1014.28 157.609 993.825 157.609C973.367 157.609 961.673 142.977 961.673 121.747V45.1335H936.588V123.701C936.588 158.59 958.752 180.547 993.825 180.547Z" fill="#FFFFF5"></path>
<path d="M1106.35 180.547C1134.6 180.547 1151.89 162.735 1151.89 139.805C1151.89 114.913 1135.32 106.378 1111.95 98.5716C1100.26 94.6637 1090.03 91.2469 1090.03 79.7867C1090.03 70.7531 1096.85 63.6822 1109.51 63.6822C1118.52 63.6822 1125.35 68.5624 1132.16 77.3416L1149.94 60.7561C1139.47 48.3053 1126.81 41.2346 1110 41.2346C1084.91 41.2346 1066.4 57.5842 1066.4 80.7591C1066.4 105.161 1083.69 113.94 1106.83 121.747C1118.28 125.891 1128.27 129.308 1128.27 140.777C1128.27 150.784 1120.47 158.1 1108.05 158.1C1095.39 158.1 1085.16 151.265 1077.85 141.268L1059.83 157.127C1070.54 171.768 1086.86 180.547 1106.35 180.547Z" fill="#FFFFF5"></path>
<path d="M1165.29 176.885H1190.37V101.253C1190.37 81.25 1202.55 64.9004 1223.25 64.9004C1243.96 64.9004 1254.91 79.5412 1254.91 100.035V176.885H1280V93.4463C1280 64.6549 1263.68 41.9617 1231.78 41.9617C1214.24 41.9617 1198.89 50.2594 1190.62 67.0998H1190.13C1190.37 58.8023 1190.37 53.6763 1190.37 45.1334V0.246948H1165.29V176.885Z" fill="#FFFFF5"></path>
<path fill-rule="evenodd" clip-rule="evenodd" d="M166.957 111.501C148.405 111.501 119.255 107.519 111.305 83.626C103.355 59.7329 75.5283 55.7508 55.6523 55.7508V0.000366211C75.5283 0.000366211 103.355 3.98254 111.305 27.8756C118.949 50.8527 147.082 55.7508 166.957 55.7508V0.000366211C186.833 0.000366211 214.66 3.98254 222.61 27.8756C230.254 50.8567 258.387 55.7508 278.263 55.7508V111.501C259.71 111.501 230.56 107.519 222.61 83.626C214.66 59.7329 186.833 55.7508 166.957 55.7508V111.501C186.833 111.501 214.66 115.483 222.61 139.376C230.254 162.354 258.387 167.252 278.263 167.252V223.002C259.71 223.002 230.56 219.02 222.61 195.127C214.66 171.234 186.833 167.252 166.957 167.252V223.002C148.405 223.002 119.255 219.02 111.305 195.127C103.355 171.23 75.5283 167.252 55.6523 167.252V111.501C75.5283 111.501 103.355 115.483 111.305 139.376C118.949 162.354 147.082 167.252 166.957 167.252V111.501Z" fill="url(#paint0_linear_1_34)"></path>
<path d="M55.6522 167.25H0V223H55.6522V167.25Z" fill="#ACCDB5"></path>
<path d="M55.6522 55.75H0V111.5H55.6522V55.75Z" fill="#ACCDB5"></path>
<path d="M333.913 0H278.261V55.75H333.913V0Z" fill="#F2B457"></path>
<path d="M333.913 111.5H278.261V167.25H333.913V111.5Z" fill="#F2B457"></path>
<defs>
<linearGradient id="paint0_linear_1_34" x1="55.6523" y1="111.5" x2="278.261" y2="111.5" gradientUnits="userSpaceOnUse">
<stop stop-color="#ACCDB5"></stop>
<stop offset="0.3" stop-color="#BBCAF0"></stop>
<stop offset="0.7" stop-color="#F1C1F3"></stop>
<stop offset="1" stop-color="#F2B457"></stop>
</linearGradient>
</defs>
</svg>