<svg width="1280" height="223" viewBox="0 0 1280 223" fill="none" xmlns="http://www.w3.org/2000/svg">
<g clip-path="url(#clip0_1_11)">
<path d="M409.538 176.884H444.366V153.709H417.086C415.38 153.709 414.409 152.737 414.409 151.028V68.3168H444.611V45.1329H414.409V10.7341H389.569V157.608C389.569 168.351 396.383 176.884 409.538 176.884Z" fill="#111115"></path>
<path d="M510.366 180.302C528.883 180.302 545.684 171.032 554.938 155.909H555.428C555.183 164.443 555.183 167.86 555.183 176.884H580.268V45.1331H555.183C555.183 54.1668 555.183 59.0472 555.428 66.6085H554.938C546.174 50.5043 530.588 42.2068 510.366 42.2068C475.783 42.2068 449.963 71.9706 449.963 111.504C449.963 151.265 475.057 180.302 510.366 180.302ZM515.238 157.372C491.124 157.372 475.057 137.605 475.057 111.504C475.057 85.3938 491.124 65.1452 515.238 65.1452C539.842 65.1452 556.154 84.1757 556.154 111.258C556.154 138.823 540.087 157.372 515.238 157.372Z" fill="#111115"></path>
<path d="M617.772 176.884H645.052V153.709H625.329C623.868 153.709 622.889 152.737 622.889 151.029V0.246582H597.804V157.608C597.804 168.351 604.626 176.884 617.772 176.884Z" fill="#111115"></path>
<path d="M657.962 176.884H680.861L716.66 123.946L752.704 176.884H781.2V176.403L734.441 105.642L775.112 45.6238V45.1332H746.126L683.537 138.342H682.802V0.0012207H657.962V176.884Z" fill="#111115"></path>
<path d="M792.648 221.78H817.733V179.084C817.733 169.814 817.733 164.198 817.488 155.664H817.978C826.506 171.277 842.337 180.056 862.795 180.056C897.133 180.056 923.189 150.538 923.189 111.013C923.189 71.2434 897.859 42.2068 862.55 42.2068C844.523 42.2068 827.232 51.4765 817.978 66.8537H817.488C817.733 58.8016 817.733 53.4306 817.733 45.1331H792.648V221.78ZM857.678 157.127C833.074 157.127 816.762 138.578 816.762 111.013C816.762 83.9305 832.838 64.9001 857.678 64.9001C881.792 64.9001 898.104 84.9029 898.104 111.013C898.104 137.115 882.028 157.127 857.678 157.127Z" fill="#111115"></path>
<path d="M993.826 180.547C1028.65 180.547 1050.82 158.59 1050.82 123.455V45.1331H1025.73V121.747C1025.73 142.977 1014.28 157.608 993.826 157.608C973.368 157.608 961.673 142.977 961.673 121.747V45.1331H936.589V123.7C936.589 158.59 958.752 180.547 993.826 180.547Z" fill="#111115"></path>
<path d="M1106.35 180.547C1134.6 180.547 1151.89 162.734 1151.89 139.805C1151.89 114.912 1135.33 106.378 1111.95 98.5711C1100.26 94.6632 1090.03 91.2464 1090.03 79.7862C1090.03 70.7526 1096.85 63.6817 1109.51 63.6817C1118.52 63.6817 1125.35 68.562 1132.16 77.3411L1149.94 60.7556C1139.47 48.3048 1126.81 41.2341 1110 41.2341C1084.91 41.2341 1066.4 57.5838 1066.4 80.7586C1066.4 105.16 1083.7 113.94 1106.83 121.746C1118.28 125.891 1128.27 129.308 1128.27 140.777C1128.27 150.783 1120.47 158.099 1108.05 158.099C1095.39 158.099 1085.16 151.264 1077.85 141.267L1059.83 157.127C1070.54 171.768 1086.86 180.547 1106.35 180.547Z" fill="#111115"></path>
<path d="M1165.29 176.884H1190.38V101.253C1190.38 81.2496 1202.55 64.9 1223.25 64.9C1243.96 64.9 1254.92 79.5407 1254.92 100.035V176.884H1280V93.4459C1280 64.6545 1263.68 41.9613 1231.78 41.9613C1214.24 41.9613 1198.89 50.259 1190.62 67.0994H1190.13C1190.38 58.8019 1190.38 53.6759 1190.38 45.133V0.246582H1165.29V176.884Z" fill="#111115"></path>
<path fill-rule="evenodd" clip-rule="evenodd" d="M166.957 111.501C148.405 111.501 119.255 107.519 111.304 83.6256C103.354 59.7326 75.5278 55.7504 55.6519 55.7504V0C75.5278 0 103.354 3.98217 111.304 27.8752C118.949 50.8524 147.081 55.7504 166.957 55.7504V0C186.833 0 214.659 3.98217 222.609 27.8752C230.254 50.8563 258.386 55.7504 278.262 55.7504V111.501C259.71 111.501 230.56 107.519 222.609 83.6256C214.659 59.7326 186.833 55.7504 166.957 55.7504V111.501C186.833 111.501 214.659 115.483 222.609 139.376C230.254 162.353 258.386 167.251 278.262 167.251V223.002C259.71 223.002 230.56 219.02 222.609 195.127C214.659 171.233 186.833 167.251 166.957 167.251V223.002C148.405 223.002 119.255 219.02 111.304 195.127C103.354 171.229 75.5278 167.251 55.6519 167.251V111.501C75.5278 111.501 103.354 115.483 111.304 139.376C118.949 162.353 147.081 167.251 166.957 167.251V111.501Z" fill="url(#paint0_linear_1_11)"></path>
<path d="M55.6521 167.25H0V223H55.6521V167.25Z" fill="#ACCDB5"></path>
<path d="M55.6521 55.7495H0V111.499H55.6521V55.7495Z" fill="#ACCDB5"></path>
<path d="M333.913 -0.000244141H278.261V55.7497H333.913V-0.000244141Z" fill="#F2B457"></path>
<path d="M333.913 111.5H278.261V167.25H333.913V111.5Z" fill="#F2B457"></path>
</g>
<defs>
<linearGradient id="paint0_linear_1_11" x1="55.6519" y1="111.5" x2="278.26" y2="111.5" gradientUnits="userSpaceOnUse">
<stop stop-color="#ACCDB5"></stop>
<stop offset="0.3" stop-color="#BBCAF0"></stop>
<stop offset="0.7" stop-color="#F1C1F3"></stop>
<stop offset="1" stop-color="#F2B457"></stop>
</linearGradient>
<clipPath id="clip0_1_11">
<rect width="1280" height="223" fill="white"></rect>
</clipPath>
</defs>
</svg>